<svg version="1.1" xmlns="http://www.w3.org/2000/svg" xmlns:xlink="http://www.w3.org/1999/xlink" width="61.2" height="61.2" viewBox="0,0,61.2,61.2"><g transform="translate(-209.4,-149.4)"><g data-paper-data="{&quot;isPaintingLayer&quot;:true}" fill-rule="nonzero" stroke-linecap="butt" stroke-linejoin="miter" stroke-miterlimit="10" stroke-dasharray="" stroke-dashoffset="0" style="mix-blend-mode: normal"><path d="M209.4,210.6v-61.2h61.2v61.2z" fill="none" stroke="#ffffff" stroke-width="0"/><path d="M257.8,176.8125c0,0.42342 -0.03802,7.7163 -0.11204,8.12739c-0.9977,5.54076 -8.53628,9.84761 -17.68796,9.84761c-9.1136,0 -16.62751,-4.27109 -17.67517,-9.77853c-0.08243,-0.43333 -0.12483,-7.74931 -0.12483,-8.19647c0,-6.13036 7.96933,-11.1 17.8,-11.1c9.83067,0 17.8,4.96964 17.8,11.1z" fill="#70ff00" stroke="#ffffff" stroke-width="2.5"/><path d="M257.55,176.3125c0,6.13036 -7.88538,11.1 -17.6125,11.1c-9.72712,0 -17.6125,-4.96964 -17.6125,-11.1c0,-6.13036 7.88538,-11.1 17.6125,-11.1c9.72712,0 17.6125,4.96964 17.6125,11.1z" fill="#70ff00" stroke="#ffffff" stroke-width="2.5"/><path d="M257.8,176.8125c0,0.42342 -0.03802,7.7163 -0.11204,8.12739c-0.9977,5.54076 -8.53628,9.84761 -17.68796,9.84761c-9.1136,0 -16.62751,-4.27109 -17.67517,-9.77853c-0.08243,-0.43333 -0.12483,-7.74931 -0.12483,-8.19647c0,-6.13036 7.96933,-11.1 17.8,-11.1c9.83067,0 17.8,4.96964 17.8,11.1z" fill="#ab2b16" stroke="#000000" stroke-width="0"/><path d="M257.55,176.3125c0,6.13036 -7.88538,11.1 -17.6125,11.1c-9.72712,0 -17.6125,-4.96964 -17.6125,-11.1c0,-6.13036 7.88538,-11.1 17.6125,-11.1c9.72712,0 17.6125,4.96964 17.6125,11.1z" fill="#ee1622" stroke="#000000" stroke-width="0"/></g></g></svg>