<svg version="1.1" xmlns="http://www.w3.org/2000/svg" xmlns:xlink="http://www.w3.org/1999/xlink" width="61.2" height="61.2" viewBox="0,0,61.2,61.2"><g transform="translate(-209.4,-149.4)"><g data-paper-data="{&quot;isPaintingLayer&quot;:true}" fill-rule="nonzero" stroke-linecap="butt" stroke-linejoin="miter" stroke-miterlimit="10" stroke-dasharray="" stroke-dashoffset="0" style="mix-blend-mode: normal"><path d="M209.4,210.6v-61.2h61.2v61.2z" fill="none" stroke="#ffffff" stroke-width="0"/><g fill="#70ff00" stroke="#ffffff" stroke-width="2.5"><path d="M257.08187,176.14219c1.25,2.79842 0.58698,8.4038 0.51296,8.81489c-0.9977,5.54076 -8.53628,9.84761 -17.68796,9.84761c-9.1136,0 -16.62751,-4.27109 -17.67517,-9.77853c-0.05405,-0.28416 -0.13676,-6.34081 0.03489,-7.30758c1.18295,-6.66255 10.91035,-9.65556 17.64028,-9.65556c7.33559,0 10.94727,2.96791 13.67227,6.26011c0.92687,1.11979 2.86816,0.39842 3.50273,1.81906z"/><path d="M257.45687,178.4408c0,6.13036 -7.88538,11.1 -17.6125,11.1c-9.72712,0 -17.6125,-4.96964 -17.6125,-11.1c0,-6.13036 7.88538,-11.1 17.6125,-11.1c9.72712,0 17.6125,4.96964 17.6125,11.1z"/></g><path d="M257.08187,176.14218c1.25,2.79842 0.58698,8.4038 0.51296,8.81489c-0.9977,5.54076 -8.53628,9.84761 -17.68796,9.84761c-9.1136,0 -16.62751,-4.27109 -17.67517,-9.77853c-0.05405,-0.28416 -0.13676,-6.34081 0.03489,-7.30758c1.18295,-6.66255 10.91035,-9.65556 17.64028,-9.65556c7.33559,0 10.94727,2.96791 13.67227,6.26011c0.92687,1.11979 2.86816,0.39842 3.50273,1.81906z" fill="#ab2b16" stroke="#000000" stroke-width="0"/><path d="M257.45687,178.44079c0,6.13036 -7.88538,11.1 -17.6125,11.1c-9.72712,0 -17.6125,-4.96964 -17.6125,-11.1c0,-6.13036 7.88538,-11.1 17.6125,-11.1c9.72712,0 17.6125,4.96964 17.6125,11.1z" fill="#ee1622" stroke="#000000" stroke-width="0"/></g></g></svg>