<svg version="1.1" xmlns="http://www.w3.org/2000/svg" xmlns:xlink="http://www.w3.org/1999/xlink" width="67.4" height="102.8" viewBox="0,0,67.4,102.8"><g transform="translate(-206.3,-146.3)"><g data-paper-data="{&quot;isPaintingLayer&quot;:true}" fill-rule="nonzero" stroke-width="0" stroke-linecap="butt" stroke-linejoin="miter" stroke-miterlimit="10" stroke-dasharray="" stroke-dashoffset="0" style="mix-blend-mode: normal"><path d="M224.74891,178.2781h30.50219v35.4219z" fill="#ffffff" stroke="#000000"/><path d="M224.74891,213.7v-35.4219h30.50219z" data-paper-data="{&quot;index&quot;:null}" fill="#ffffff" stroke="#000000"/><path d="M255.2511,146.3v35.4219h-30.50219z" data-paper-data="{&quot;index&quot;:null}" fill="#ffffff" stroke="#000000"/><path d="M255.2511,181.7219h-30.50219v-35.4219z" data-paper-data="{&quot;index&quot;:null}" fill="#ffffff" stroke="#000000"/><path d="M241.7219,164.74891v30.50219h-35.4219z" fill="#ffffff" stroke="#000000"/><path d="M206.3,164.74891h35.4219v30.50219z" data-paper-data="{&quot;index&quot;:null}" fill="#ffffff" stroke="#000000"/><path d="M273.7,195.2511h-35.4219v-30.50219z" data-paper-data="{&quot;index&quot;:null}" fill="#ffffff" stroke="#000000"/><path d="M238.2781,195.2511v-30.50219h35.4219z" data-paper-data="{&quot;index&quot;:null}" fill="#ffffff" stroke="#000000"/><path d="M231.39051,181.64737v-17.63641h17.21898v17.63642l-8.51488,14.34168z" fill="#002b6c" stroke="#000000"/><path d="M233.30374,181.57158v-7.51623h13.39253v7.51623z" fill="#ffffff" stroke="#000000"/><path d="M207.58334,249.1v-3.66667h64.83333v3.66667z" fill="#ffffff" stroke="none"/><path d="M217.33333,244.63333v-11h45.33334v11c0,0 -14.85088,-6.8 -22.31169,-6.8c-7.64578,0 -23.02165,6.8 -23.02165,6.8z" fill="#ffffff" stroke="none"/><path d="M207.58334,228.25v-7.96667h64.83333v7.96667z" fill="#ffffff" stroke="none"/><path d="M207.60101,228.90895h5.15v5.15z" fill="#ffffff" stroke="none"/><path d="M267.25615,234.06588v-5.15h5.15z" data-paper-data="{&quot;index&quot;:null}" fill="#ffffff" stroke="none"/></g></g></svg>