<svg version="1.1" xmlns="http://www.w3.org/2000/svg" xmlns:xlink="http://www.w3.org/1999/xlink" width="216.21622" height="123.12312" viewBox="0,0,216.21622,123.12312"><g transform="translate(-131.89189,-118.43844)"><g data-paper-data="{&quot;isPaintingLayer&quot;:true}" fill-rule="nonzero" stroke-width="0" stroke-linecap="butt" stroke-linejoin="miter" stroke-miterlimit="10" stroke-dasharray="" stroke-dashoffset="0" style="mix-blend-mode: normal"><path d="M131.89189,241.56156v-123.12312h216.21622v123.12312z" fill="#002b6c" stroke="none"/><path d="M193.89189,241.56156v-123.12312h92.21622v123.12312z" fill="#ffffff" stroke="none"/><path d="M201.89189,241.56156v-123.12312h76.21622v123.12312z" fill="#ee1622" stroke="none"/><path d="M207.89189,241.56156v-123.12312h64.21622v123.12312z" fill="#ffffff" stroke="none"/><path d="M218.42046,241.56156v-123.12312h43.21622v123.12312z" fill="#ee1622" stroke="none"/><path d="M233.8,179.3h12.4v14.4z" fill="#f5de33" stroke="#000000"/><path d="M233.8,193.7v-14.4h12.4z" data-paper-data="{&quot;index&quot;:null}" fill="#f5de33" stroke="#000000"/><path d="M246.2,166.3v14.4h-12.4z" data-paper-data="{&quot;index&quot;:null}" fill="#f5de33" stroke="#000000"/><path d="M246.2,180.7h-12.4v-14.4z" data-paper-data="{&quot;index&quot;:null}" fill="#f5de33" stroke="#000000"/><path d="M240.7,173.8l0,12.4h-14.4z" fill="#f5de33" stroke="#000000"/><path d="M226.3,173.8h14.4l0,12.4z" data-paper-data="{&quot;index&quot;:null}" fill="#f5de33" stroke="#000000"/><path d="M253.7,186.2l-14.4,0l0,-12.4z" data-paper-data="{&quot;index&quot;:null}" fill="#f5de33" stroke="#000000"/><path d="M239.3,186.2l0,-12.4h14.4z" data-paper-data="{&quot;index&quot;:null}" fill="#f5de33" stroke="#000000"/><path d="M236.5,180.6697v-7.1697h7v7.1697l-3.46154,5.8303z" fill="#ee1622" stroke="#000000"/><path d="M237.27778,180.63889v-3.05556h5.44444v3.05556z" fill="#f5de33" stroke="#000000"/></g></g></svg>